<?xml version="1.0" standalone="no"?>
<svg width="1056" height="816" xmlns="http://www.w3.org/2000/svg" id="svgvm0"><g transform="translate(5,5)" style="font-family: sans-serif;"><g transform="translate(0,1)"><g><g class="tactic reconnaissance" transform="translate(0, 0)"><g class="techniques"><g class="technique T1595" transform="translate(0, 201.5)"><rect class="cell" height="201.5" width="104.6" fill="#2e2e3f" stroke="#6B7279"/><polygon class="sidebar" transform="translate(0, 201.5)" points="0,0 12,0 12,0" fill="#6B7279" visibility="hidden"/><text font-size="10.774615384615384" fill="#ffffff"><tspan x="4" y="97">Active</tspan><tspan x="4" y="111.5">Scanning</tspan></text></g><g class="technique T1594" transform="translate(0, 403)"><rect class="cell" height="201.5" width="104.6" fill="#2e2e3f" stroke="#6B7279"/><polygon class="sidebar" transform="translate(0, 201.5)" points="0,0 12,0 12,0" fill="#6B7279" visibility="hidden"/><text font-size="10.774615384615384" fill="#ffffff"><tspan x="4" y="89.58333333333333">Search</tspan><tspan x="4" y="104.25">Victim-Owned</tspan><tspan x="4" y="118.91666666666666">Websites</tspan></text></g></g><g class="subtechniques"/><g class="tactic-label"><text font-size="10.004999999999999" fill="white" font-weight="bold"><tspan text-anchor="middle" x="52.3" y="104.25">Reconnaissance</tspan></text></g></g><g class="tactic resource-development" transform="translate(104.6, 0)"><g class="techniques"><g class="technique T1650" transform="translate(0, 201.5)"><rect class="cell" height="201.5" width="104.6" fill="#2e2e3f" stroke="#6B7279"/><polygon class="sidebar" transform="translate(0, 201.5)" points="0,0 12,0 12,0" fill="#6B7279" visibility="hidden"/><text font-size="10.774615384615384" fill="#ffffff"><tspan x="4" y="97">Acquire</tspan><tspan x="4" y="111.5">Access</tspan></text></g><g class="technique T1586" transform="translate(0, 403)"><rect class="cell" height="201.5" width="104.6" fill="#2e2e3f" stroke="#6B7279"/><polygon class="sidebar" transform="translate(0, 201.5)" points="0,0 12,0 12,0" fill="#6B7279" visibility="hidden"/><text font-size="10.774615384615384" fill="#ffffff"><tspan x="4" y="97">Compromise</tspan><tspan x="4" y="111.5">Accounts</tspan></text></g></g><g class="subtechniques"/><g class="tactic-label"><text font-size="10.004999999999999" fill="white" font-weight="bold"><tspan text-anchor="middle" x="52.3" y="97">Resource</tspan><tspan text-anchor="middle" x="52.3" y="111.5">Development</tspan></text></g></g><g class="tactic initial-access" transform="translate(209.2, 0)"><g class="techniques"><g class="technique T1190" transform="translate(0, 201.5)"><rect class="cell" height="201.5" width="104.6" fill="#2e2e3f" stroke="#6B7279"/><polygon class="sidebar" transform="translate(0, 201.5)" points="0,0 12,0 12,0" fill="#6B7279" visibility="hidden"/><text font-size="10.774615384615384" fill="#ffffff"><tspan x="4" y="89.58333333333333">Exploit</tspan><tspan x="4" y="104.25">Public-Facing</tspan><tspan x="4" y="118.91666666666666">Application</tspan></text></g><g class="technique T1078" transform="translate(0, 403)"><rect class="cell" height="201.5" width="104.6" fill="#2e2e3f" stroke="#6B7279"/><polygon class="sidebar" transform="translate(0, 201.5)" points="0,0 12,0 12,0" fill="#6B7279" visibility="hidden"/><text font-size="10.774615384615384" fill="#ffffff"><tspan x="4" y="97">Valid</tspan><tspan x="4" y="111.5">Accounts</tspan></text></g></g><g class="subtechniques"/><g class="tactic-label"><text font-size="10.004999999999999" fill="white" font-weight="bold"><tspan text-anchor="middle" x="52.3" y="97">Initial</tspan><tspan text-anchor="middle" x="52.3" y="111.5">Access</tspan></text></g></g><g class="tactic persistence" transform="translate(313.79999999999995, 0)"><g class="techniques"><g class="technique T1078" transform="translate(0, 201.5)"><rect class="cell" height="201.5" width="104.6" fill="#2e2e3f" stroke="#6B7279"/><polygon class="sidebar" transform="translate(0, 201.5)" points="0,0 12,0 12,0" fill="#6B7279" visibility="hidden"/><text font-size="10.774615384615384" fill="#ffffff"><tspan x="4" y="97">Valid</tspan><tspan x="4" y="111.5">Accounts</tspan></text></g></g><g class="subtechniques"/><g class="tactic-label"><text font-size="10.004999999999999" fill="white" font-weight="bold"><tspan text-anchor="middle" x="52.3" y="104.25">Persistence</tspan></text></g></g><g class="tactic privilege-escalation" transform="translate(418.4, 0)"><g class="techniques"><g class="technique T1548" transform="translate(0, 201.5)"><rect class="cell" height="201.5" width="104.6" fill="#2e2e3f" stroke="#6B7279"/><polygon class="sidebar" transform="translate(0, 201.5)" points="0,0 12,0 12,0" fill="#6B7279" visibility="hidden"/><text font-size="10.774615384615384" fill="#ffffff"><tspan x="4" y="82.125">Abuse</tspan><tspan x="4" y="96.875">Elevation</tspan><tspan x="4" y="111.625">Control</tspan><tspan x="4" y="126.375">Mechanism</tspan></text></g><g class="technique T1078" transform="translate(0, 403)"><rect class="cell" height="201.5" width="104.6" fill="#2e2e3f" stroke="#6B7279"/><polygon class="sidebar" transform="translate(0, 201.5)" points="0,0 12,0 12,0" fill="#6B7279" visibility="hidden"/><text font-size="10.774615384615384" fill="#ffffff"><tspan x="4" y="97">Valid</tspan><tspan x="4" y="111.5">Accounts</tspan></text></g></g><g class="subtechniques"/><g class="tactic-label"><text font-size="10.004999999999999" fill="white" font-weight="bold"><tspan text-anchor="middle" x="52.3" y="97">Privilege</tspan><tspan text-anchor="middle" x="52.3" y="111.5">Escalation</tspan></text></g></g><g class="tactic defense-evasion" transform="translate(523, 0)"><g class="techniques"><g class="technique T1548" transform="translate(0, 201.5)"><rect class="cell" height="201.5" width="104.6" fill="#2e2e3f" stroke="#6B7279"/><polygon class="sidebar" transform="translate(0, 201.5)" points="0,0 12,0 12,0" fill="#6B7279" visibility="hidden"/><text font-size="10.774615384615384" fill="#ffffff"><tspan x="4" y="82.125">Abuse</tspan><tspan x="4" y="96.875">Elevation</tspan><tspan x="4" y="111.625">Control</tspan><tspan x="4" y="126.375">Mechanism</tspan></text></g><g class="technique T1078" transform="translate(0, 403)"><rect class="cell" height="201.5" width="104.6" fill="#2e2e3f" stroke="#6B7279"/><polygon class="sidebar" transform="translate(0, 201.5)" points="0,0 12,0 12,0" fill="#6B7279" visibility="hidden"/><text font-size="10.774615384615384" fill="#ffffff"><tspan x="4" y="97">Valid</tspan><tspan x="4" y="111.5">Accounts</tspan></text></g></g><g class="subtechniques"/><g class="tactic-label"><text font-size="10.004999999999999" fill="white" font-weight="bold"><tspan text-anchor="middle" x="52.3" y="97">Defense</tspan><tspan text-anchor="middle" x="52.3" y="111.5">Evasion</tspan></text></g></g><g class="tactic credential-access" transform="translate(627.5999999999999, 0)"><g class="techniques"><g class="technique T1552" transform="translate(0, 201.5)"><rect class="cell" height="201.5" width="104.6" fill="#2e2e3f" stroke="#6B7279"/><polygon class="sidebar" transform="translate(0, 201.5)" points="0,0 12,0 12,0" fill="#6B7279" visibility="hidden"/><text font-size="10.774615384615384" fill="#ffffff"><tspan x="4" y="97">Unsecured</tspan><tspan x="4" y="111.5">Credentials</tspan></text></g></g><g class="subtechniques"/><g class="tactic-label"><text font-size="10.004999999999999" fill="white" font-weight="bold"><tspan text-anchor="middle" x="52.3" y="97">Credential</tspan><tspan text-anchor="middle" x="52.3" y="111.5">Access</tspan></text></g></g><g class="tactic discovery" transform="translate(732.1999999999999, 0)"><g class="techniques"><g class="technique T1087" transform="translate(0, 201.5)"><rect class="cell" height="201.5" width="104.6" fill="#2e2e3f" stroke="#6B7279"/><polygon class="sidebar" transform="translate(0, 201.5)" points="0,0 12,0 12,0" fill="#6B7279" visibility="hidden"/><text font-size="10.774615384615384" fill="#ffffff"><tspan x="4" y="97">Account</tspan><tspan x="4" y="111.5">Discovery</tspan></text></g><g class="technique T1083" transform="translate(0, 403)"><rect class="cell" height="201.5" width="104.6" fill="#2e2e3f" stroke="#6B7279"/><polygon class="sidebar" transform="translate(0, 201.5)" points="0,0 12,0 12,0" fill="#6B7279" visibility="hidden"/><text font-size="10.774615384615384" fill="#ffffff"><tspan x="4" y="89.58333333333333">File and</tspan><tspan x="4" y="104.25">Directory</tspan><tspan x="4" y="118.91666666666666">Discovery</tspan></text></g><g class="technique T1046" transform="translate(0, 604.5)"><rect class="cell" height="201.5" width="104.6" fill="#2e2e3f" stroke="#6B7279"/><polygon class="sidebar" transform="translate(0, 201.5)" points="0,0 12,0 12,0" fill="#6B7279" visibility="hidden"/><text font-size="10.774615384615384" fill="#ffffff"><tspan x="4" y="89.58333333333333">Network</tspan><tspan x="4" y="104.25">Service</tspan><tspan x="4" y="118.91666666666666">Discovery</tspan></text></g></g><g class="subtechniques"/><g class="tactic-label"><text font-size="10.004999999999999" fill="white" font-weight="bold"><tspan text-anchor="middle" x="52.3" y="104.25">Discovery</tspan></text></g></g><g class="tactic lateral-movement" transform="translate(836.8, 0)"><g class="techniques"><g class="technique T1021" transform="translate(0, 201.5)"><rect class="cell" height="201.5" width="104.6" fill="#2e2e3f" stroke="#6B7279"/><polygon class="sidebar" transform="translate(0, 201.5)" points="0,0 12,0 12,0" fill="#6B7279" visibility="hidden"/><text font-size="10.774615384615384" fill="#ffffff"><tspan x="4" y="97">Remote</tspan><tspan x="4" y="111.5">Services</tspan></text></g></g><g class="subtechniques"/><g class="tactic-label"><text font-size="10.004999999999999" fill="white" font-weight="bold"><tspan text-anchor="middle" x="52.3" y="97">Lateral</tspan><tspan text-anchor="middle" x="52.3" y="111.5">Movement</tspan></text></g></g><g class="tactic collection" transform="translate(941.4, 0)"><g class="techniques"><g class="technique T1560" transform="translate(0, 201.5)"><rect class="cell" height="201.5" width="104.6" fill="#2e2e3f" stroke="#6B7279"/><polygon class="sidebar" transform="translate(0, 201.5)" points="0,0 12,0 12,0" fill="#6B7279" visibility="hidden"/><text font-size="10.774615384615384" fill="#ffffff"><tspan x="4" y="89.58333333333333">Archive</tspan><tspan x="4" y="104.25">Collected</tspan><tspan x="4" y="118.91666666666666">Data</tspan></text></g></g><g class="subtechniques"/><g class="tactic-label"><text font-size="10.004999999999999" fill="white" font-weight="bold"><tspan text-anchor="middle" x="52.3" y="104.25">Collection</tspan></text></g></g></g></g></g></svg>